<?xml version="1.0" standalone="no"?>
<!DOCTYPE svg PUBLIC "-//W3C//DTD SVG 20010904//EN"
 "http://www.w3.org/TR/2001/REC-SVG-20010904/DTD/svg10.dtd">
<svg version="1.0" xmlns="http://www.w3.org/2000/svg"
 width="700.000000pt" height="700.000000pt" viewBox="0 0 700.000000 700.000000"
 preserveAspectRatio="xMidYMid meet">
<metadata>
Created by potrace 1.14, written by Peter Selinger 2001-2017
</metadata>
<g transform="translate(0.000000,700.000000) scale(0.100000,-0.100000)"
fill="#000000" stroke="none">
<path d="M1389 5593 c0 -51 0 -4151 1 -4168 0 -8 2848 -12 4105 -6 l100 1 2
2110 1 2110 -2104 0 -2104 0 -1 -47z m3867 -286 c4 -4 8 -803 9 -1777 l2
-1770 -676 0 c-372 0 -1168 -1 -1768 -2 -601 -1 -1096 2 -1100 6 -9 9 -11
3539 -2 3546 10 7 3528 4 3535 -3z"/>
<path d="M1990 3535 c0 -1398 1 -1475 18 -1476 21 -1 303 -1 318 0 8 1 11 131
13 443 1 243 3 443 5 445 4 4 108 -206 179 -357 46 -99 210 -440 235 -488 l22
-42 133 0 132 0 215 428 c118 235 219 426 225 426 5 -1 105 -194 223 -428
l213 -427 137 3 137 3 40 80 c22 44 79 161 127 260 47 99 125 260 172 359 47
98 86 183 86 189 0 6 3 7 7 4 9 -9 11 -108 13 -539 1 -324 3 -356 18 -360 25
-7 324 0 331 7 6 7 9 2912 3 2933 -3 9 -68 12 -279 12 l-274 0 -58 -122 c-57
-120 -111 -232 -281 -583 -45 -93 -107 -222 -137 -285 -31 -63 -87 -180 -125
-260 -39 -80 -88 -183 -110 -230 -22 -47 -42 -87 -44 -89 -3 -3 -92 -6 -199
-8 l-195 -3 -61 127 c-63 132 -113 238 -192 403 -25 52 -80 167 -122 255 -42
88 -89 187 -105 220 -35 75 -177 371 -233 487 l-42 86 -272 1 -273 2 0 -1476z
m539 625 c36 -74 104 -218 153 -319 48 -101 88 -185 88 -187 0 -1 36 -78 81
-171 44 -92 101 -211 126 -263 25 -52 60 -125 79 -161 l34 -67 -81 -181 c-45
-100 -85 -181 -88 -181 -3 0 -44 82 -91 183 -46 100 -107 232 -136 292 -28 61
-66 142 -84 180 -17 39 -86 186 -152 328 -111 242 -119 263 -119 320 0 34 0
186 1 337 l1 275 62 -125 c34 -69 91 -186 126 -260z m2111 38 l-1 -333 -51
-105 c-28 -58 -66 -138 -84 -177 -19 -40 -50 -107 -69 -148 -19 -41 -51 -110
-71 -152 -20 -43 -51 -109 -69 -148 -18 -38 -47 -101 -65 -140 -18 -38 -57
-122 -86 -185 -30 -63 -62 -132 -72 -154 l-18 -38 -48 98 c-47 96 -109 235
-118 264 -3 8 14 53 38 100 49 99 201 413 249 515 32 68 140 294 223 466 23
47 42 89 42 93 0 4 9 21 21 37 11 16 18 29 15 29 -3 0 25 57 61 128 36 70 72
139 80 155 8 15 16 27 19 27 2 0 4 -150 4 -332z"/>
<path d="M2860 5006 c0 -10 80 -182 195 -421 42 -88 96 -200 120 -250 81 -171
236 -490 273 -563 l37 -72 40 83 c22 45 72 150 112 232 164 342 266 552 367
757 59 120 105 221 102 226 -3 5 -85 10 -183 11 -170 2 -233 -6 -233 -28 0 -5
-25 -62 -56 -127 -31 -66 -71 -151 -88 -190 -17 -38 -38 -80 -46 -93 l-15 -23
-22 43 c-12 24 -62 128 -112 232 l-90 187 -200 0 c-111 0 -201 -2 -201 -4z"/>
</g>
</svg>
