<svg xmlns="http://www.w3.org/2000/svg" width="1024" height="1024" viewBox="0 0 1024 1024">
<g>
<path d="M 203.00,508.00 L 203.00,199.00 L 511.00,199.00 L 819.00,199.00 L 818.75,507.75 L 818.50,816.50 L 510.75,816.75 L 203.00,817.01 L 203.00,508.00 M 770.25,507.10 C770.14,364.44 769.77,247.44 769.44,247.10 C769.10,246.77 652.32,246.50 509.92,246.50 L 251.00,246.50 L 251.00,506.75 L 251.00,767.00 L 510.73,766.75 L 770.47,766.50 L 770.25,507.10 M 682.25,723.19 L 679.00,722.87 L 678.89,662.69 C678.83,629.58 678.48,599.80 678.11,596.50 L 677.44,590.50 L 669.12,607.50 C661.16,623.74 644.47,658.47 630.18,688.50 C626.52,696.20 621.26,707.00 618.51,712.50 L 613.50,722.50 L 593.50,722.50 L 573.50,722.50 L 541.99,659.13 C524.65,624.28 510.03,595.83 509.49,595.91 C508.94,596.00 494.32,624.51 477.00,659.28 L 445.50,722.50 L 426.00,722.50 L 406.50,722.50 L 399.36,708.41 C395.43,700.66 385.25,679.51 376.74,661.41 C352.76,610.43 343.76,592.00 342.84,592.00 C342.38,592.00 342.00,621.48 342.00,657.50 L 342.00,723.00 L 316.50,723.00 L 291.00,723.00 L 291.00,506.99 L 291.00,290.98 L 330.75,291.24 L 370.50,291.50 L 374.94,300.00 C379.85,309.39 396.81,344.74 420.99,396.00 C435.59,426.94 463.62,485.72 475.97,511.27 L 481.17,522.03 L 509.83,521.77 L 538.50,521.50 L 540.28,518.00 C542.59,513.45 574.21,447.67 578.57,438.34 C582.63,429.65 605.72,381.75 618.76,355.00 C629.22,333.53 638.37,314.44 645.01,300.24 L 649.34,290.98 L 689.92,291.24 L 730.50,291.50 L 730.75,506.78 C730.95,678.50 730.75,722.15 729.75,722.49 C728.23,723.02 686.80,723.63 682.25,723.19 M 440.15,612.60 C444.53,602.76 448.98,593.01 450.04,590.93 L 451.96,587.16 L 436.88,555.83 C428.58,538.60 413.69,507.40 403.79,486.50 C374.71,425.14 368.71,412.55 358.98,392.50 C353.91,382.05 348.13,370.12 346.13,366.00 L 342.50,358.50 L 342.24,407.91 L 341.98,457.32 L 351.93,478.91 C357.40,490.79 365.99,509.27 371.01,520.00 C376.04,530.73 389.73,560.20 401.45,585.50 C413.16,610.80 423.78,633.61 425.04,636.18 L 427.34,640.87 L 429.76,635.68 C431.10,632.83 435.77,622.45 440.15,612.60 M 603.71,618.00 C616.54,590.50 628.61,564.76 633.01,555.50 C640.13,540.52 657.11,504.04 663.49,490.00 C666.36,483.68 670.92,474.23 673.61,469.00 L 678.50,459.50 L 678.79,410.25 C678.97,378.76 678.72,361.00 678.10,361.00 C676.88,361.00 665.83,382.83 645.46,425.50 C636.79,443.65 623.76,470.88 616.50,486.00 C609.24,501.12 595.76,529.25 586.55,548.50 C577.35,567.75 569.40,583.93 568.91,584.45 C568.41,584.97 568.00,586.01 568.00,586.75 C568.00,588.32 580.95,616.93 588.21,631.41 L 593.18,641.33 L 596.93,632.91 C598.99,628.29 602.04,621.58 603.71,618.00 M 501.72,467.19 C497.55,458.53 484.15,430.76 471.94,405.47 C444.34,348.33 418.00,292.81 418.00,291.76 C418.00,291.33 431.36,291.09 447.69,291.24 L 477.39,291.50 L 493.43,325.25 C502.25,343.81 509.72,359.00 510.03,359.00 C510.62,359.00 511.90,356.41 517.96,343.00 C520.07,338.32 525.00,327.83 528.92,319.67 C532.84,311.52 537.34,302.00 538.92,298.51 L 541.79,292.18 L 548.45,291.47 C556.31,290.63 602.61,291.38 602.26,292.34 C602.12,292.71 599.97,297.07 597.48,302.04 C577.49,341.84 511.00,479.46 511.00,481.03 C511.00,481.50 510.61,482.12 510.14,482.41 C509.67,482.70 505.88,475.86 501.72,467.19 Z" fill="rgba(0,0,0,1)"/>
</g>
</svg>